<svg viewBox="0 0 59 24" fill="none"
  xmlns="http://www.w3.org/2000/svg">
  <path d="M28.9294 0.248169C30.7225 0.248169 35.826 1.22748 35.826 6.24817C35.826 10.2895 33.8949 11.4895 32.3777 11.7654C31.2742 11.9723 35.5501 11.7654 35.5501 16.8275C35.5501 23.9999 29.3432 23.724 29.3432 23.724H18.9984V0.248169H28.9294ZM24.7915 5.97231V9.51713H28.2398C28.2398 9.51713 29.6191 9.35162 29.6191 7.65506C29.6191 5.95851 28.2398 5.97231 28.2398 5.97231H24.7915ZM24.7915 14.6206V18.2068H28.2398C28.2398 18.2068 29.6191 18.0689 29.6191 16.2758C29.6191 14.6206 28.2398 14.6206 28.2398 14.6206H24.7915ZM0.515625 0.248169V23.724H6.99838V15.0344H11.1363V23.724H17.6191V0.248169H11.1363V9.10334H6.99838V0.248169H0.515625Z" fill="black"/>
  <path fill-rule="evenodd" clip-rule="evenodd" d="M46.7227 6.06897C43.447 6.06897 40.7916 8.72438 40.7916 12C40.7916 15.2756 43.447 17.931 46.7227 17.931C49.9983 17.931 52.6537 15.2756 52.6537 12C52.6537 8.72438 49.9983 6.06897 46.7227 6.06897ZM34.7227 12C34.7227 5.37258 40.0952 0 46.7227 0C53.3501 0 58.7227 5.37258 58.7227 12C58.7227 18.6274 53.3501 24 46.7227 24C40.0952 24 34.7227 18.6274 34.7227 12Z" fill="black"/>
  <path d="M46.7231 16.8277C49.3893 16.8277 51.5507 14.6663 51.5507 12.0001C51.5507 9.33387 49.3893 7.17249 46.7231 7.17249C44.0569 7.17249 41.8955 9.33387 41.8955 12.0001C41.8955 14.6663 44.0569 16.8277 46.7231 16.8277Z" fill="black"/>
</svg>
